<svg width="210" height="60" viewBox="0 0 210 60" fill="none" xmlns="http://www.w3.org/2000/svg">
<g clip-path="url(#clip0_298_1824)">
<path d="M131.436 47.936C131.416 47.9815 131.406 48.0306 131.406 48.0802C131.406 48.1297 131.416 48.1788 131.436 48.2244C131.436 48.2244 131.566 48.3555 131.644 48.3555H144.973C145.449 48.338 145.924 48.4162 146.369 48.5856C146.814 48.755 147.221 49.0122 147.566 49.3419C147.911 49.6717 148.187 50.0675 148.378 50.506C148.569 50.9445 148.671 51.4169 148.677 51.8955V52.1577C148.664 53.0969 148.285 53.9933 147.622 54.655C146.958 55.3167 146.064 55.691 145.13 55.6977H96.5097C95.5755 55.691 94.681 55.3167 94.018 54.655C93.3549 53.9933 92.976 53.0969 92.9623 52.1577V51.8955C92.976 50.9564 93.3549 50.0599 94.018 49.3983C94.681 48.7366 95.5755 48.3623 96.5097 48.3555H123.037C123.176 48.3648 123.314 48.329 123.432 48.2535C123.549 48.178 123.639 48.0667 123.689 47.936C126.48 40.1906 128.592 32.215 130.001 24.0999C130.066 23.6453 130.221 23.2085 130.459 22.8163C130.697 22.4241 131.011 22.0846 131.384 21.8186C131.969 21.4223 132.66 21.2122 133.366 21.2155C133.583 21.1906 133.801 21.1906 134.018 21.2155L135.453 21.4515C135.91 21.5381 136.345 21.7177 136.73 21.9792C137.116 22.2408 137.445 22.5787 137.696 22.9724C137.945 23.3553 138.111 23.7869 138.183 24.2387C138.255 24.6906 138.231 25.1526 138.113 25.5946C136.269 33.1516 134.04 40.6085 131.436 47.936ZM143.2 11.2248C144.134 11.2316 145.028 11.6059 145.691 12.2676C146.354 12.9293 146.733 13.8257 146.747 14.7648C146.775 15.2521 146.696 15.7395 146.515 16.1926C146.335 16.6458 146.058 17.0535 145.704 17.3871C145.369 17.7411 144.963 18.02 144.514 18.2053C144.064 18.3906 143.581 18.4781 143.095 18.4622H98.4399C97.9543 18.4781 97.4708 18.3906 97.0213 18.2053C96.5717 18.02 96.1663 17.7411 95.8316 17.3871C95.4771 17.0535 95.2 16.6458 95.0197 16.1926C94.8394 15.7395 94.7604 15.2521 94.7882 14.7648C94.7984 14.293 94.9009 13.8279 95.0899 13.3959C95.279 12.964 95.5508 12.5737 95.8899 12.2474C96.229 11.9211 96.6288 11.6651 97.0663 11.4942C97.5039 11.3232 97.9706 11.2406 98.4399 11.2511H116.203C116.516 11.2511 116.672 11.0937 116.672 10.8053V4.06617C116.658 3.58051 116.743 3.09706 116.923 2.64593C117.102 2.1948 117.372 1.78565 117.716 1.44395C118.052 1.09326 118.458 0.818387 118.908 0.637555C119.357 0.456723 119.84 0.374064 120.324 0.395059H120.872C121.356 0.372362 121.839 0.454239 122.289 0.635173C122.739 0.816106 123.145 1.09189 123.48 1.44395C123.829 1.78173 124.103 2.1902 124.282 2.64228C124.462 3.09436 124.545 3.57972 124.524 4.06617V10.8053C124.515 10.8659 124.52 10.9277 124.54 10.9858C124.559 11.0439 124.591 11.0967 124.634 11.1399C124.677 11.1832 124.73 11.2158 124.788 11.2351C124.845 11.2544 124.907 11.2599 124.967 11.2511L143.2 11.2248ZM115.107 40.8559V41.5377C115.105 42.3115 114.878 43.0677 114.455 43.7142C113.912 44.5412 113.07 45.124 112.108 45.34L111.456 45.576H110.621C110.037 45.5703 109.471 45.3774 109.004 45.0253C108.638 44.7879 108.329 44.472 108.099 44.1002C107.869 43.7284 107.723 43.31 107.674 42.8751C107.361 40.4888 106.865 37.8404 106.239 35.0084C105.613 32.1764 104.726 28.8199 103.891 26.0142C103.772 25.6865 103.71 25.3404 103.709 24.9915C103.717 24.4239 103.86 23.8665 104.126 23.3657C104.33 22.959 104.62 22.6025 104.976 22.3215C105.332 22.0404 105.746 21.8419 106.187 21.7399H106.343C106.677 21.6136 107.03 21.5513 107.387 21.5564C108.183 21.5634 108.958 21.8197 109.603 22.2896C110.248 22.7595 110.732 23.4198 110.986 24.1786C112.005 27.0686 112.876 30.0093 113.595 32.9893C114.168 35.8213 114.768 38.4435 115.107 40.8559Z" fill="#01688C"/>
<path d="M189.655 4.7218C190.158 3.85688 190.878 3.13998 191.743 2.64295C192.608 2.14591 193.588 1.88619 194.585 1.8898C195.6 1.86841 196.606 2.09597 197.515 2.55283C198.424 3.00969 199.209 3.68211 199.801 4.51202C202.237 7.93994 205.144 11.0035 208.435 13.6111C209.202 14.1484 209.727 14.9683 209.896 15.8925C209.935 16.1532 209.935 16.4184 209.896 16.6791C209.896 17.3197 209.715 17.9472 209.374 18.4885C208.878 19.3014 208.383 20.2191 207.861 21.268C208.002 21.2193 208.153 21.2133 208.297 21.2506C208.441 21.2879 208.57 21.3669 208.67 21.4778C208.823 21.6407 208.907 21.8569 208.904 22.0809V52.9445C208.948 54.1599 208.79 55.3741 208.435 56.5369C208.117 57.4019 207.496 58.1201 206.687 58.556C205.357 59.1912 203.908 59.5396 202.436 59.5787H202.201C201.409 59.5851 200.641 59.306 200.036 58.792C199.339 58.212 198.83 57.4359 198.575 56.5631C198.536 56.3464 198.536 56.1243 198.575 55.9076C198.577 55.4459 198.723 54.9964 198.993 54.6227C199.187 54.3399 199.449 54.1103 199.754 53.9547C200.059 53.799 200.398 53.7222 200.74 53.7311H201.862C201.981 53.7471 202.103 53.739 202.219 53.7075C202.336 53.676 202.445 53.6217 202.54 53.5476C202.674 53.3564 202.738 53.1251 202.723 52.892V45.4449V45.3138C202.723 45.3138 202.723 45.3138 202.566 45.3138C201.966 46.2316 201.34 47.1494 200.662 48.0671C199.984 48.9849 199.28 49.824 198.549 50.6894C197.87 51.4738 197.128 52.2017 196.332 52.8658C196.186 53.0229 196.008 53.1464 195.81 53.2278C195.612 53.3093 195.398 53.3468 195.184 53.3378C194.939 53.3838 194.687 53.3722 194.447 53.3039C194.208 53.2357 193.987 53.1127 193.802 52.9445C193.85 54.117 193.691 55.2888 193.333 56.4058C193.018 57.235 192.428 57.9297 191.663 58.3725C190.378 59.0248 188.956 59.3575 187.516 59.3427H187.281C186.533 59.3933 185.791 59.1697 185.194 58.7134C184.55 58.134 184.073 57.3914 183.812 56.5631C183.797 56.3361 183.797 56.1084 183.812 55.8814C183.828 55.4543 183.953 55.0386 184.177 54.6751C184.364 54.4065 184.614 54.1891 184.906 54.0425C185.197 53.896 185.521 53.825 185.847 53.836H186.942C187.171 53.8305 187.392 53.7473 187.568 53.6C187.689 53.4235 187.744 53.2102 187.725 52.9969V45.1302C187.741 45.1076 187.751 45.0799 187.751 45.0516C187.751 45.0232 187.741 44.9956 187.725 44.9729C187.7 44.9613 187.673 44.9552 187.646 44.9552C187.619 44.9552 187.592 44.9613 187.568 44.9729C185.773 47.5467 183.681 49.897 181.334 51.9742C180.774 52.4331 180.074 52.6832 179.352 52.6822H179.169C178.365 52.655 177.596 52.3386 177.004 51.7907L175.7 50.6894C175.586 50.617 175.492 50.5162 175.428 50.3968C175.364 50.2773 175.332 50.1432 175.335 50.0076C175.323 49.8776 175.352 49.7471 175.418 49.6344C175.483 49.5216 175.582 49.4321 175.7 49.3782V49.2471H170.561C170.248 49.2471 170.092 49.4045 170.092 49.7454V55.7765C170.134 56.2687 170.074 56.7644 169.915 57.2321C169.757 57.6998 169.504 58.1292 169.171 58.4933C168.839 58.8573 168.435 59.1479 167.985 59.3467C167.535 59.5455 167.049 59.6482 166.558 59.6482C166.066 59.6482 165.58 59.5455 165.13 59.3467C164.68 59.1479 164.276 58.8573 163.944 58.4933C163.612 58.1292 163.358 57.6998 163.2 57.2321C163.041 56.7644 162.981 56.2687 163.023 55.7765V49.7454C163.032 49.6779 163.025 49.6094 163.003 49.545C162.981 49.4807 162.945 49.4223 162.897 49.3742C162.849 49.3261 162.791 49.2896 162.727 49.2676C162.663 49.2456 162.595 49.2386 162.528 49.2471H156.711C156.286 49.2547 155.865 49.1721 155.474 49.005C155.083 48.8378 154.731 48.5897 154.442 48.2769C154.13 47.9811 153.883 47.623 153.717 47.2256C153.55 46.8283 153.469 46.4004 153.477 45.9694C153.465 45.5379 153.546 45.109 153.712 44.7111C153.878 44.3133 154.127 43.9556 154.442 43.6618C154.741 43.3659 155.096 43.1325 155.485 42.975C155.875 42.8174 156.291 42.739 156.711 42.744H162.528C162.631 42.7626 162.737 42.7438 162.828 42.691C162.919 42.6382 162.988 42.5548 163.023 42.4556V39.8334C163.028 39.768 163.017 39.7024 162.994 39.6414C162.97 39.5804 162.933 39.5254 162.886 39.4803C162.838 39.4352 162.782 39.4012 162.72 39.3806C162.658 39.3601 162.592 39.3535 162.528 39.3614H158.928C158.461 39.3648 157.998 39.275 157.566 39.097C157.135 38.919 156.742 38.6565 156.412 38.3246C156.082 37.9928 155.821 37.5982 155.644 37.164C155.467 36.7297 155.377 36.2644 155.381 35.7951V21.0058C155.355 20.5211 155.432 20.0364 155.608 19.5842C155.783 19.132 156.052 18.7227 156.398 18.3836C156.739 18.0416 157.147 17.7742 157.596 17.5982C158.045 17.4222 158.525 17.3414 159.006 17.3609H162.606C162.673 17.3695 162.741 17.3624 162.805 17.3404C162.869 17.3184 162.927 17.282 162.975 17.2339C163.023 17.1858 163.059 17.1273 163.081 17.063C163.103 16.9987 163.11 16.9302 163.102 16.8627V14.2405C163.11 14.173 163.103 14.1045 163.081 14.0401C163.059 13.9758 163.023 13.9174 162.975 13.8693C162.927 13.8212 162.869 13.7848 162.805 13.7627C162.741 13.7407 162.673 13.7337 162.606 13.7422H157.389C156.97 13.7457 156.555 13.6654 156.167 13.5058C155.78 13.3463 155.427 13.1108 155.131 12.813C154.835 12.5153 154.601 12.1612 154.442 11.7715C154.283 11.3818 154.203 10.9642 154.207 10.5431C154.203 10.122 154.283 9.70448 154.442 9.31477C154.601 8.92505 154.835 8.571 155.131 8.27323C155.427 7.97547 155.78 7.73996 156.167 7.58042C156.555 7.42089 156.97 7.34053 157.389 7.34402H162.606C162.671 7.35188 162.736 7.34529 162.798 7.32473C162.86 7.30417 162.917 7.27014 162.964 7.22507C163.011 7.18 163.048 7.125 163.072 7.06398C163.096 7.00295 163.106 6.93741 163.102 6.87202V5.37736C163.059 4.8851 163.119 4.38941 163.278 3.92174C163.436 3.45406 163.69 3.02459 164.022 2.66057C164.355 2.29655 164.758 2.00592 165.208 1.8071C165.658 1.60828 166.144 1.50562 166.636 1.50562C167.127 1.50562 167.613 1.60828 168.063 1.8071C168.513 2.00592 168.917 2.29655 169.249 2.66057C169.582 3.02459 169.835 3.45406 169.994 3.92174C170.152 4.38941 170.212 4.8851 170.17 5.37736V7.0818C170.162 7.14582 170.168 7.21098 170.188 7.27219C170.209 7.3334 170.243 7.38902 170.289 7.4347C170.334 7.48038 170.389 7.5149 170.45 7.53556C170.511 7.55622 170.576 7.56246 170.64 7.5538H175.856C176.275 7.55031 176.691 7.63067 177.078 7.7902C177.466 7.94973 177.818 8.18525 178.114 8.48301C178.411 8.78077 178.645 9.13483 178.804 9.52454C178.962 9.91426 179.042 10.3318 179.039 10.7529C179.042 11.174 178.962 11.5916 178.804 11.9813C178.645 12.371 178.411 12.7251 178.114 13.0228C177.818 13.3206 177.466 13.5561 177.078 13.7156C176.691 13.8752 176.275 13.9555 175.856 13.952H170.64C170.327 13.952 170.17 14.1094 170.17 14.4502V17.0725C170.162 17.1375 170.169 17.2035 170.189 17.2657C170.21 17.328 170.244 17.3849 170.289 17.4325C170.333 17.48 170.388 17.5171 170.449 17.541C170.509 17.5649 170.575 17.575 170.64 17.5707H174.604C175.071 17.5601 175.535 17.6442 175.968 17.818C176.402 17.9918 176.796 18.2517 177.127 18.5822C177.458 18.9127 177.72 19.307 177.896 19.7414C178.072 20.1759 178.159 20.6416 178.152 21.1107V34.5889C178.151 34.6334 178.167 34.6765 178.196 34.7103C178.225 34.744 178.265 34.7661 178.308 34.7725C178.308 34.7725 178.465 34.7725 178.517 34.7725C179.908 33.6919 181.176 32.4608 182.299 31.1014C182.909 30.3585 183.687 29.7739 184.568 29.3969C185.088 29.21 185.634 29.1125 186.186 29.1085C186.559 29.1052 186.929 29.1673 187.281 29.292C187.356 29.3226 187.441 29.3226 187.516 29.292C187.53 29.2589 187.538 29.2232 187.538 29.1871C187.538 29.151 187.53 29.1153 187.516 29.0822V27.7711C187.525 27.714 187.52 27.6555 187.502 27.6005C187.484 27.5456 187.454 27.4956 187.413 27.4547C187.373 27.4138 187.323 27.3831 187.268 27.3652C187.213 27.3473 187.155 27.3426 187.099 27.3516H183.003C182.59 27.3451 182.182 27.2549 181.804 27.0866C181.427 26.9182 181.086 26.675 180.804 26.3716C180.521 26.0681 180.303 25.7106 180.161 25.3203C180.019 24.93 179.957 24.515 179.978 24.1V22.5267C179.963 22.3314 179.993 22.1354 180.066 21.9537C180.138 21.7719 180.251 21.6091 180.395 21.4778C180.513 21.3543 180.655 21.2559 180.812 21.1883C180.969 21.1208 181.137 21.0855 181.308 21.0845C181.308 21.0845 181.464 21.0845 181.308 21.0845C181.021 20.5076 180.708 19.9045 180.343 19.2751C180.048 18.6736 179.922 18.0028 179.978 17.3347C179.978 17.0987 179.978 16.8365 179.978 16.548C180.169 15.6115 180.687 14.7746 181.438 14.188C184.649 11.4804 187.421 8.28675 189.655 4.7218ZM162.11 23.0774C161.797 23.0774 161.641 23.2347 161.641 23.4969V25.3849C161.632 25.4489 161.638 25.5141 161.659 25.5753C161.68 25.6365 161.714 25.6921 161.759 25.7378C161.805 25.7835 161.86 25.818 161.921 25.8387C161.982 25.8593 162.047 25.8656 162.11 25.8569H171.057C171.121 25.8656 171.186 25.8593 171.246 25.8387C171.307 25.818 171.363 25.7835 171.408 25.7378C171.454 25.6921 171.488 25.6365 171.508 25.5753C171.529 25.5141 171.535 25.4489 171.527 25.3849V23.4182C171.527 23.156 171.37 22.9987 171.057 22.9987L162.11 23.0774ZM162.11 30.944C162.047 30.9354 161.982 30.9416 161.921 30.9623C161.86 30.9829 161.805 31.0174 161.759 31.0631C161.714 31.1088 161.68 31.1644 161.659 31.2256C161.638 31.2868 161.632 31.352 161.641 31.416V33.304C161.641 33.5662 161.797 33.7236 162.11 33.7236H171.057C171.37 33.7236 171.527 33.5662 171.527 33.304V31.4422C171.535 31.3782 171.529 31.3131 171.508 31.2519C171.488 31.1906 171.454 31.135 171.408 31.0893C171.363 31.0437 171.307 31.0091 171.246 30.9885C171.186 30.9678 171.121 30.9616 171.057 30.9702L162.11 30.944ZM182.769 42.2196C183.273 41.522 183.959 40.9776 184.751 40.6462C185.207 40.4603 185.694 40.3624 186.186 40.3578C186.523 40.3161 186.865 40.3161 187.203 40.3578C187.438 40.3578 187.568 40.3578 187.568 40.0431V33.1991C187.585 33.1764 187.594 33.1488 187.594 33.1205C187.594 33.0921 187.585 33.0645 187.568 33.0418C187.544 33.0301 187.517 33.0241 187.49 33.0241C187.463 33.0241 187.436 33.0301 187.412 33.0418C186.42 34.4126 185.321 35.7016 184.125 36.8965C183.417 37.5531 182.479 37.9018 181.517 37.8667C180.513 37.8171 179.548 37.4603 178.752 36.844L178.517 36.608C178.488 36.5822 178.451 36.568 178.413 36.568C178.374 36.568 178.337 36.5822 178.308 36.608C178.33 36.9403 178.284 37.2735 178.173 37.5875C178.063 37.9014 177.89 38.1896 177.666 38.4347C177.442 38.6797 177.17 38.8766 176.868 39.0133C176.566 39.15 176.24 39.2238 175.909 39.2302H170.692C170.628 39.2216 170.563 39.2278 170.502 39.2485C170.442 39.2691 170.386 39.3037 170.341 39.3493C170.295 39.395 170.261 39.4506 170.241 39.5119C170.22 39.5731 170.214 39.6382 170.222 39.7022V42.3245C170.215 42.3895 170.221 42.4555 170.242 42.5177C170.262 42.58 170.296 42.6369 170.341 42.6845C170.386 42.732 170.44 42.7691 170.501 42.793C170.562 42.8169 170.627 42.827 170.692 42.8227H176.535C176.927 42.814 177.317 42.8863 177.68 43.0352C178.044 43.184 178.373 43.4062 178.647 43.688C178.938 43.9628 179.168 44.2966 179.321 44.6673C179.474 45.038 179.546 45.4371 179.534 45.8382H179.665C180.818 44.7498 181.858 43.5461 182.769 42.2458V42.2196ZM195.81 26.3551C195.258 25.7826 194.948 25.016 194.948 24.218C194.948 23.42 195.258 22.6534 195.81 22.0809C196.085 21.7889 196.417 21.5567 196.785 21.3988C197.153 21.241 197.549 21.1607 197.949 21.1631H206.061C206.085 21.1769 206.112 21.1842 206.14 21.1842C206.167 21.1842 206.194 21.1769 206.218 21.1631C206.232 21.1392 206.239 21.1121 206.239 21.0845C206.239 21.0569 206.232 21.0297 206.218 21.0058C204.025 19.2695 201.983 17.3483 200.114 15.2631C198.284 13.3043 196.626 11.1899 195.158 8.94358C195.156 8.91659 195.147 8.89054 195.133 8.8673C195.119 8.84405 195.1 8.82419 195.078 8.80915C195.056 8.7941 195.03 8.78425 195.003 8.78029C194.977 8.77633 194.949 8.77836 194.924 8.78625C194.924 8.78625 194.715 8.78625 194.689 8.94358C193.328 11.1923 191.784 13.3236 190.072 15.3156C188.27 17.369 186.288 19.2558 184.151 20.9534C184.151 20.9534 184.151 20.9534 184.151 21.1107C184.175 21.1245 184.202 21.1318 184.229 21.1318C184.257 21.1318 184.284 21.1245 184.308 21.1107H190.15C190.614 21.1114 191.073 21.207 191.499 21.3919C191.925 21.5767 192.309 21.8468 192.628 22.1858C192.966 22.5046 193.233 22.8911 193.413 23.3202C193.592 23.7492 193.681 24.2114 193.672 24.6769V33.9596C193.658 33.9882 193.651 34.0196 193.651 34.0514C193.651 34.0832 193.658 34.1145 193.672 34.1431C193.672 34.1431 193.672 34.1431 193.854 34.1431C194.797 33.3464 195.67 32.469 196.463 31.5209C197.108 30.6994 197.952 30.0584 198.914 29.6591C199.528 29.4153 200.186 29.308 200.845 29.3445C201.234 29.3522 201.62 29.414 201.992 29.528H202.175H202.436C202.484 29.5035 202.524 29.4658 202.551 29.4195C202.579 29.3731 202.593 29.3199 202.592 29.2658V27.876C202.592 27.5876 202.436 27.4565 202.097 27.4565H198.002C197.59 27.4391 197.186 27.3343 196.818 27.149C196.449 26.9637 196.124 26.7021 195.863 26.3814L195.81 26.3551ZM197.715 42.4556C198.144 41.6969 198.814 41.1056 199.619 40.7774C200.089 40.5422 200.606 40.4168 201.132 40.4102C201.479 40.4118 201.823 40.4739 202.149 40.5938C202.185 40.6122 202.225 40.6218 202.266 40.6218C202.307 40.6218 202.347 40.6122 202.384 40.5938C202.403 40.5482 202.413 40.4991 202.413 40.4496C202.413 40.4 202.403 40.3509 202.384 40.3054V32.7009C202.384 32.7009 202.384 32.7009 202.227 32.7009C201.157 34.3117 199.944 35.8214 198.601 37.2111C198.312 37.5044 197.966 37.7349 197.585 37.8883C197.204 38.0416 196.795 38.1146 196.384 38.1027C195.536 38.1146 194.708 37.8373 194.037 37.316H193.828C193.806 37.3752 193.806 37.4404 193.828 37.4996V47.228C193.806 47.2872 193.806 47.3524 193.828 47.4116C193.828 47.4116 193.828 47.4116 194.037 47.4116C195.451 45.9096 196.685 44.2463 197.715 42.4556Z" fill="#01688C"/>
<path d="M56.1321 44.029C53.5238 36.4508 56.8886 22.5268 65.6527 19.5899C74.4168 16.653 85.3459 25.857 87.8499 33.4352C90.354 41.0134 83.4939 44.0814 74.8081 46.9921C66.1222 49.9028 58.6362 51.6072 56.1321 44.029Z" fill="#FFD482"/>
<path d="M37.9257 25.0701C37.8342 24.1774 37.9438 23.2755 38.2463 22.4312C38.5489 21.5868 39.0366 20.8218 39.6733 20.1928C40.9775 18.8293 46.4551 18.4621 49.1678 19.511C50.9937 20.219 53.6803 21.2155 53.9151 22.9986C54.1498 24.7817 52.5587 25.6208 51.4893 26.8008C50.4198 27.9808 49.1678 30.2097 46.7681 30.5244C44.9181 30.5552 43.1231 29.8914 41.734 28.6626C40.0646 27.6661 38.1605 26.9057 37.9257 25.0701Z" fill="#FFD482"/>
<path d="M54.4889 5.50833C55.1768 5.06127 55.9557 4.77501 56.7682 4.67063C57.5808 4.56626 58.4063 4.64642 59.1839 4.90521C60.8533 5.40344 63.4617 9.7301 63.7486 12.431C63.9312 14.2141 64.1137 15.499 62.7574 16.443C62.2041 16.8799 61.563 17.1907 60.8784 17.3537C60.1938 17.5167 59.4821 17.5281 58.7927 17.387C56.9668 16.9674 55.0366 16.915 53.7846 15.0532C52.9779 13.5534 52.7548 11.8056 53.1586 10.1497C53.2629 8.36655 53.0803 6.47855 54.4889 5.50833Z" fill="#FFD482"/>
<path d="M80.2857 6.08538C81.1104 5.98516 81.9469 6.09606 82.7176 6.40779C83.4882 6.71953 84.168 7.22198 84.6938 7.86849C87.4848 11.5396 86.0241 14.1881 84.9808 16.6792C84.2504 18.3312 79.3728 19.5636 78.2251 18.5147C76.1217 16.7764 74.5486 14.477 73.6865 11.8805C73.5039 9.88761 74.6516 8.73383 75.5645 7.29161C76.4775 5.84938 78.6163 6.21649 80.2857 6.08538Z" fill="#FFD482"/>
<path d="M36.5172 23.1822C36.2715 22.8613 35.9553 22.602 35.5933 22.4246C35.2313 22.2472 34.8333 22.1564 34.4305 22.1595H3.13006C2.72732 22.1564 2.32933 22.2472 1.9673 22.4246C1.60528 22.602 1.28903 22.8613 1.04336 23.1822C0.41853 23.9063 0.100237 24.8474 0.156518 25.8044V56.0124C0.130171 56.9174 0.447223 57.7986 1.04336 58.4773C1.28903 58.7981 1.60528 59.0574 1.9673 59.2348C2.32933 59.4123 2.72732 59.503 3.13006 59.4999H4.14733C4.40868 59.5051 4.66757 59.4484 4.90316 59.3345C5.13874 59.2207 5.34444 59.0528 5.50368 58.8444C5.88351 58.3896 6.08728 57.8123 6.07752 57.2186C6.07752 57.0088 6.15577 56.9039 6.31228 56.9039H31.0136C31.1961 56.9039 31.2744 56.9039 31.2744 57.2186C31.255 57.8094 31.4496 58.3871 31.8222 58.8444C31.9881 59.0518 32.1988 59.2186 32.4383 59.3322C32.6778 59.4457 32.9398 59.5031 33.2046 59.4999H34.5088C34.9115 59.503 35.3095 59.4123 35.6715 59.2348C36.0336 59.0574 36.3498 58.7981 36.5955 58.4773C37.2228 57.7546 37.5414 56.8124 37.4823 55.8551V25.7257C37.4968 24.7849 37.1513 23.8743 36.5172 23.1822ZM30.8049 48.5915C30.8049 49.4044 30.4397 49.7977 29.7355 49.7977H6.96437C6.26011 49.7977 5.92102 49.4044 5.92102 48.5915V30.2359C5.92102 29.2919 6.26011 28.8462 6.96437 28.8462H29.6572C30.3615 28.8462 30.7266 29.2919 30.7266 30.2359L30.8049 48.5915Z" fill="#01688C"/>
<path d="M76.9991 6.84575C76.9991 7.16042 77.1556 7.31775 77.4165 7.31775H86.4936C86.9411 7.31429 87.3848 7.39991 87.7992 7.56967C88.2137 7.73943 88.5905 7.98998 88.9082 8.30687C89.2258 8.62376 89.4779 9.00072 89.65 9.41603C89.822 9.83133 89.9106 10.2768 89.9106 10.7266C89.9106 11.1765 89.822 11.6219 89.65 12.0372C89.4779 12.4526 89.2258 12.8295 88.9082 13.1464C88.5905 13.4633 88.2137 13.7138 87.7992 13.8836C87.3848 14.0534 86.9411 14.139 86.4936 14.1355H77.4165C77.3596 14.1266 77.3015 14.1312 77.2468 14.1491C77.1921 14.1671 77.1423 14.1977 77.1017 14.2386C77.061 14.2795 77.0305 14.3295 77.0127 14.3845C76.9948 14.4395 76.9902 14.4979 76.9991 14.5551V16.548C77.02 17.0344 76.9378 17.5198 76.7579 17.9719C76.578 18.4239 76.3046 18.8324 75.9558 19.1702C75.6159 19.5156 75.2089 19.787 74.7601 19.9675C74.3114 20.1479 73.8305 20.2336 73.3474 20.2191H73.1126C72.6288 20.2401 72.146 20.1574 71.6963 19.9766C71.2466 19.7958 70.8403 19.5209 70.5043 19.1702C70.1607 18.8285 69.8907 18.4193 69.7112 17.9682C69.5317 17.5171 69.4465 17.0336 69.4609 16.548V14.5551C69.4609 14.2666 69.3044 14.1355 68.9914 14.1355H55.9496C55.6105 14.1355 55.454 14.1355 55.454 14.5551V16.548C55.4733 17.0319 55.393 17.5147 55.2179 17.966C55.0429 18.4172 54.7769 18.8272 54.4367 19.1702C54.0997 19.5195 53.6932 19.7935 53.2438 19.9742C52.7943 20.155 52.312 20.2384 51.8283 20.2191H51.6457C51.1843 20.2174 50.7277 20.1238 50.3024 19.9438C49.8771 19.7637 49.4915 19.5008 49.1678 19.1702C48.819 18.8324 48.5455 18.4239 48.3657 17.9719C48.1858 17.5198 48.1036 17.0344 48.1244 16.548V14.5551C48.1334 14.4979 48.1287 14.4395 48.1109 14.3845C48.0931 14.3295 48.0626 14.2795 48.0219 14.2386C47.9812 14.1977 47.9315 14.1671 47.8768 14.1491C47.8221 14.1312 47.7639 14.1266 47.7071 14.1355H38.6039C38.1498 14.1415 37.6992 14.0565 37.2782 13.8854C36.8572 13.7144 36.4743 13.4606 36.152 13.1391C35.8365 12.8225 35.5863 12.4464 35.4155 12.0325C35.2448 11.6185 35.1569 11.1748 35.1569 10.7266C35.1569 10.2785 35.2448 9.83476 35.4155 9.42081C35.5863 9.00685 35.8365 8.63081 36.152 8.31419C36.4743 7.99265 36.8572 7.73892 37.2782 7.56784C37.6992 7.39675 38.1498 7.31173 38.6039 7.31775H47.7854C48.0462 7.31775 48.2027 7.16042 48.2027 6.84575V5.19375C48.1766 4.70671 48.2565 4.21981 48.4367 3.76695C48.6169 3.31409 48.8931 2.90615 49.246 2.57153C49.571 2.24447 49.9575 1.98563 50.3829 1.81006C50.8083 1.6345 51.2642 1.54571 51.724 1.54886H51.9066C52.3731 1.53822 52.837 1.62232 53.2705 1.79612C53.7039 1.96993 54.098 2.22986 54.4292 2.56036C54.7604 2.89087 55.0219 3.28515 55.198 3.71961C55.374 4.15407 55.4611 4.61978 55.454 5.08886V6.74086C55.454 7.05553 55.6105 7.21286 55.9496 7.21286H69.2001C69.2638 7.22152 69.3286 7.21527 69.3895 7.19462C69.4504 7.17396 69.5057 7.13944 69.5511 7.09376C69.5966 7.04808 69.6309 6.99246 69.6514 6.93125C69.672 6.87004 69.6782 6.80488 69.6696 6.74086V5.19375C69.6487 4.7073 69.7309 4.22194 69.9108 3.76986C70.0907 3.31778 70.3641 2.90931 70.7129 2.57153C71.0502 2.2242 71.4574 1.95329 71.9072 1.77693C72.3571 1.60056 72.8392 1.52281 73.3213 1.54886H73.5561C74.0375 1.52939 74.5177 1.61018 74.9666 1.78617C75.4154 1.96216 75.8233 2.22954 76.1644 2.57153C76.5174 2.90615 76.7936 3.31409 76.9738 3.76695C77.154 4.21981 77.2338 4.70671 77.2078 5.19375L76.9991 6.84575Z" fill="#01688C"/>
<path d="M83.9896 22.9987C83.6513 22.6527 83.2439 22.3827 82.7944 22.2065C82.3448 22.0302 81.8632 21.9516 81.3812 21.976H44.3423C43.8668 21.9583 43.3927 22.0376 42.9486 22.2092C42.5044 22.3808 42.0995 22.6411 41.7582 22.9744C41.4169 23.3077 41.1463 23.7071 40.9629 24.1484C40.7794 24.5898 40.6868 25.0639 40.6906 25.5422V55.8289C40.7142 56.7233 41.0894 57.5719 41.734 58.1889C42.0751 58.5309 42.483 58.7983 42.9318 58.9743C43.3807 59.1503 43.8609 59.231 44.3423 59.2116H45.5422C45.842 59.2194 46.1403 59.1653 46.4184 59.0525C46.6966 58.9397 46.9488 58.7707 47.1594 58.556C47.3742 58.3453 47.5432 58.0919 47.6554 57.812C47.7677 57.5322 47.8208 57.2319 47.8115 56.9302C47.8115 56.7205 47.8115 56.6418 48.1245 56.6418H77.3643C77.573 56.6418 77.6773 56.6418 77.6773 56.9302C77.6702 57.2318 77.724 57.5317 77.8355 57.8117C77.947 58.0917 78.1139 58.3461 78.3261 58.5594C78.5382 58.7727 78.7912 58.9404 79.0698 59.0525C79.3484 59.1647 79.6466 59.2188 79.9466 59.2116H81.5116C81.9936 59.2359 82.4752 59.1574 82.9248 58.9811C83.3744 58.8049 83.7817 58.5349 84.12 58.1889C84.4777 57.8567 84.7588 57.4498 84.9435 56.9968C85.1282 56.5438 85.2122 56.0557 85.1894 55.5667V25.5422C85.1795 25.0571 85.0674 24.5796 84.8606 24.1412C84.6538 23.7028 84.3569 23.3134 83.9896 22.9987ZM58.9492 49.6142C58.9535 49.6796 58.9434 49.7452 58.9197 49.8062C58.8959 49.8672 58.859 49.9222 58.8117 49.9673C58.7644 50.0124 58.7078 50.0464 58.6459 50.0669C58.584 50.0875 58.5183 50.0941 58.4536 50.0862H48.2027C47.8636 50.0862 47.7071 49.9289 47.7071 49.6142V42.9276C47.7071 42.6391 47.8636 42.508 48.2027 42.508H58.4536C58.7666 42.508 58.9492 42.6391 58.9492 42.9276V49.6142ZM58.9492 35.5067C58.9492 35.7689 58.7666 35.9262 58.4536 35.9262H48.2027C47.8636 35.9262 47.7071 35.7689 47.7071 35.5067V29.0298C47.7071 28.7151 47.8636 28.5578 48.2027 28.5578H58.4536C58.5183 28.5499 58.584 28.5565 58.6459 28.5771C58.7078 28.5976 58.7644 28.6317 58.8117 28.6767C58.859 28.7218 58.8959 28.7768 58.9197 28.8378C58.9434 28.8989 58.9535 28.9644 58.9492 29.0298V35.5067ZM77.6773 49.6142C77.6816 49.6796 77.6715 49.7452 77.6478 49.8062C77.624 49.8672 77.5871 49.9222 77.5398 49.9673C77.4925 50.0124 77.4359 50.0464 77.374 50.0669C77.3121 50.0875 77.2464 50.0941 77.1817 50.0862H66.5135C66.1744 50.0862 66.0179 49.9289 66.0179 49.6142V42.9276C66.0179 42.6391 66.1744 42.508 66.5135 42.508H77.1817C77.4947 42.508 77.6773 42.6391 77.6773 42.9276V49.6142ZM77.6773 35.5067C77.6773 35.7689 77.4947 35.9262 77.1817 35.9262H66.5135C66.1744 35.9262 66.0179 35.7689 66.0179 35.5067V29.0298C66.0179 28.7151 66.1744 28.5578 66.5135 28.5578H77.1817C77.2464 28.5499 77.3121 28.5565 77.374 28.5771C77.4359 28.5976 77.4925 28.6317 77.5398 28.6767C77.5871 28.7218 77.624 28.7768 77.6478 28.8378C77.6715 28.8989 77.6816 28.9644 77.6773 29.0298V35.5067Z" fill="#01688C"/>
</g>
<defs>
<clipPath id="clip0_298_1824">
<rect width="210" height="59" fill="white" transform="translate(0 0.5)"/>
</clipPath>
</defs>
</svg>
