<svg width="375" height="813" viewBox="0 0 375 813" fill="none" xmlns="http://www.w3.org/2000/svg">
<g clip-path="url(#clip0_298_1117)">
<path d="M0 0.732422H375V712.732C375 767.961 330.228 812.732 275 812.732H100C44.7715 812.732 0 767.961 0 712.732V0.732422Z" fill="url(#paint0_linear_298_1117)"/>
<path fill-rule="evenodd" clip-rule="evenodd" d="M253.31 576.345C310.973 568.547 362.915 576.666 408.501 595.003C463.688 617.202 527.432 640.732 528.541 687.057C529.749 737.552 480.582 790.653 413.95 822.723C352.015 852.532 280.649 843.893 212.4 839.215C136.699 834.026 43.5734 839.549 12.3574 795.197C-19.7744 749.544 20.6356 687.542 72.4955 640.439C115.783 601.121 185.907 585.459 253.31 576.345Z" fill="#F1D9BA"/>
<path d="M394.666 697.951C497.173 697.951 580.271 614.853 580.271 512.346C580.271 409.839 497.173 326.74 394.666 326.74C292.159 326.74 209.06 409.839 209.06 512.346C209.06 614.853 292.159 697.951 394.666 697.951Z" fill="#F1D9BA"/>
</g>
<defs>
<linearGradient id="paint0_linear_298_1117" x1="248.84" y1="598.962" x2="-87.6669" y2="528.543" gradientUnits="userSpaceOnUse">
<stop stop-color="#F1DFC7"/>
<stop offset="1" stop-color="white"/>
</linearGradient>
<clipPath id="clip0_298_1117">
<path d="M0 0.732422H375V712.732C375 767.961 330.228 812.732 275 812.732H100C44.7715 812.732 0 767.961 0 712.732V0.732422Z" fill="white"/>
</clipPath>
</defs>
</svg>
