<svg width="156" height="92" viewBox="0 0 156 92" fill="none" xmlns="http://www.w3.org/2000/svg">
<path d="M122.666 91.3098C140.631 91.3098 155.194 76.8575 155.194 59.0298C155.194 41.202 140.631 26.7498 122.666 26.7498C104.701 26.7498 90.1382 41.202 90.1382 59.0298C90.1382 76.8575 104.701 91.3098 122.666 91.3098Z" fill="#FFE471"/>
<path d="M1.74425 65.8197H62.2052C68.5939 54.6397 77.0584 45.6597 90.9644 46.0697C92.7053 46.0395 94.4297 46.4091 96.0028 47.1497C100.82 49.7097 103.812 55.4197 108.76 58.3797C118.323 64.0797 132.602 56.2797 138.265 46.7397C144.241 36.7397 139.978 23.0797 131.463 15.0397C117.295 1.68967 95.3982 -1.18033 76.7662 1.46967C57.6202 4.22967 34.6451 14.5497 22.6234 29.9997C14.1647 41.1586 6.90362 53.1637 0.958252 65.8197H1.74425Z" fill="#FFAA3B"/>
<path d="M131.453 15.0698C130.207 13.8969 128.895 12.7952 127.523 11.7698L98.3003 48.6998C101.898 51.5798 104.669 55.9498 108.79 58.4098C115.562 62.4098 124.691 59.7098 131.463 54.4098C130.042 53.3398 128.692 52.2198 127.261 51.2298C125.388 49.8541 123.302 48.7902 121.084 48.0798C122.3 48.0481 123.511 48.2625 124.641 48.7098C125.781 49.1353 126.859 49.7104 127.846 50.4198C129.34 51.4774 130.694 52.7171 131.876 54.1098C134.379 52.105 136.522 49.6943 138.215 46.9798C136.732 45.8499 135.169 44.8272 133.539 43.9198C131.453 42.7753 129.275 41.8021 127.029 41.0098C129.508 41.1093 131.926 41.795 134.083 43.0098C135.748 43.9343 137.238 45.1389 138.487 46.5698C144.21 36.5498 139.918 23.0598 131.453 15.0698Z" fill="white"/>
<path d="M133.962 43.0198C131.805 41.805 129.387 41.1193 126.908 41.0198C129.065 42.1698 131.292 43.0198 133.348 44.1898C134.994 45.0106 136.58 45.9463 138.094 46.9898C138.134 46.9321 138.171 46.8719 138.205 46.8098L138.315 46.6098C137.084 45.1727 135.611 43.9581 133.962 43.0198Z" fill="#808080"/>
<path d="M127.805 50.3995C126.819 49.6901 125.741 49.1149 124.601 48.6895C123.47 48.2421 122.26 48.0278 121.044 48.0595C123.138 48.9688 125.122 50.1093 126.959 51.4595C128.38 52.4595 129.982 53.3195 131.423 54.3895L131.806 54.0895C130.633 52.6987 129.289 51.459 127.805 50.3995Z" fill="#808080"/>
</svg>
